<svg xmlns="http://www.w3.org/2000/svg" width="200" height="200" viewBox="0 0 20 20" shape-rendering="crispEdges"><rect x="4" y="1" width="9" height="1" fill="#0f1823"/><rect x="3" y="2" width="1" height="1" fill="#0f1823"/><rect x="4" y="2" width="9" height="1" fill="#f3f7fa"/><rect x="13" y="2" width="1" height="1" fill="#0f1823"/><rect x="3" y="3" width="1" height="1" fill="#0f1823"/><rect x="4" y="3" width="1" height="1" fill="#f3f7fa"/><rect x="5" y="3" width="8" height="1" fill="#dde7ef"/><rect x="13" y="3" width="1" height="1" fill="#0f1823"/><rect x="14" y="3" width="1" height="1" fill="#8fb8d6"/><rect x="15" y="3" width="1" height="1" fill="#0f1823"/><rect x="3" y="4" width="1" height="1" fill="#0f1823"/><rect x="4" y="4" width="1" height="1" fill="#f3f7fa"/><rect x="5" y="4" width="8" height="1" fill="#dde7ef"/><rect x="13" y="4" width="1" height="1" fill="#0f1823"/><rect x="14" y="4" width="2" height="1" fill="#8fb8d6"/><rect x="16" y="4" width="1" height="1" fill="#0f1823"/><rect x="3" y="5" width="1" height="1" fill="#0f1823"/><rect x="4" y="5" width="1" height="1" fill="#f3f7fa"/><rect x="5" y="5" width="8" height="1" fill="#dde7ef"/><rect x="13" y="5" width="4" height="1" fill="#0f1823"/><rect x="17" y="5" width="1" height="1" fill="#050a12" fill-opacity="0.5"/><rect x="3" y="6" width="1" height="1" fill="#0f1823"/><rect x="4" y="6" width="1" height="1" fill="#f3f7fa"/><rect x="5" y="6" width="10" height="1" fill="#dde7ef"/><rect x="15" y="6" width="1" height="1" fill="#a3b8ca"/><rect x="16" y="6" width="1" height="1" fill="#0f1823"/><rect x="17" y="6" width="1" height="1" fill="#050a12" fill-opacity="0.5"/><rect x="3" y="7" width="1" height="1" fill="#0f1823"/><rect x="4" y="7" width="1" height="1" fill="#f3f7fa"/><rect x="5" y="7" width="1" height="1" fill="#dde7ef"/><rect x="6" y="7" width="7" height="1" fill="#5f8fb3"/><rect x="13" y="7" width="2" height="1" fill="#dde7ef"/><rect x="15" y="7" width="1" height="1" fill="#a3b8ca"/><rect x="16" y="7" width="1" height="1" fill="#0f1823"/><rect x="17" y="7" width="1" height="1" fill="#050a12" fill-opacity="0.5"/><rect x="3" y="8" width="1" height="1" fill="#0f1823"/><rect x="4" y="8" width="1" height="1" fill="#f3f7fa"/><rect x="5" y="8" width="10" height="1" fill="#dde7ef"/><rect x="15" y="8" width="1" height="1" fill="#a3b8ca"/><rect x="16" y="8" width="1" height="1" fill="#0f1823"/><rect x="17" y="8" width="1" height="1" fill="#050a12" fill-opacity="0.5"/><rect x="3" y="9" width="1" height="1" fill="#0f1823"/><rect x="4" y="9" width="1" height="1" fill="#f3f7fa"/><rect x="5" y="9" width="1" height="1" fill="#dde7ef"/><rect x="6" y="9" width="8" height="1" fill="#5f8fb3"/><rect x="14" y="9" width="1" height="1" fill="#dde7ef"/><rect x="15" y="9" width="1" height="1" fill="#a3b8ca"/><rect x="16" y="9" width="1" height="1" fill="#0f1823"/><rect x="17" y="9" width="1" height="1" fill="#050a12" fill-opacity="0.5"/><rect x="3" y="10" width="1" height="1" fill="#0f1823"/><rect x="4" y="10" width="1" height="1" fill="#f3f7fa"/><rect x="5" y="10" width="10" height="1" fill="#dde7ef"/><rect x="15" y="10" width="1" height="1" fill="#a3b8ca"/><rect x="16" y="10" width="1" height="1" fill="#0f1823"/><rect x="17" y="10" width="1" height="1" fill="#050a12" fill-opacity="0.5"/><rect x="3" y="11" width="1" height="1" fill="#0f1823"/><rect x="4" y="11" width="1" height="1" fill="#f3f7fa"/><rect x="5" y="11" width="1" height="1" fill="#dde7ef"/><rect x="6" y="11" width="5" height="1" fill="#5f8fb3"/><rect x="11" y="11" width="4" height="1" fill="#dde7ef"/><rect x="15" y="11" width="1" height="1" fill="#a3b8ca"/><rect x="16" y="11" width="1" height="1" fill="#0f1823"/><rect x="17" y="11" width="1" height="1" fill="#050a12" fill-opacity="0.5"/><rect x="3" y="12" width="1" height="1" fill="#0f1823"/><rect x="4" y="12" width="1" height="1" fill="#f3f7fa"/><rect x="5" y="12" width="10" height="1" fill="#dde7ef"/><rect x="15" y="12" width="2" height="1" fill="#0f1823"/><rect x="17" y="12" width="1" height="1" fill="#050a12" fill-opacity="0.5"/><rect x="3" y="13" width="1" height="1" fill="#0f1823"/><rect x="4" y="13" width="1" height="1" fill="#f3f7fa"/><rect x="5" y="13" width="1" height="1" fill="#dde7ef"/><rect x="6" y="13" width="4" height="1" fill="#8fb8d6"/><rect x="10" y="13" width="4" height="1" fill="#dde7ef"/><rect x="14" y="13" width="1" height="1" fill="#0f1823"/><rect x="15" y="13" width="1" height="1" fill="#d9c08a"/><rect x="16" y="13" width="1" height="1" fill="#0f1823"/><rect x="17" y="13" width="1" height="1" fill="#050a12" fill-opacity="0.5"/><rect x="3" y="14" width="1" height="1" fill="#0f1823"/><rect x="4" y="14" width="1" height="1" fill="#f3f7fa"/><rect x="5" y="14" width="8" height="1" fill="#dde7ef"/><rect x="13" y="14" width="2" height="1" fill="#0f1823"/><rect x="15" y="14" width="1" height="1" fill="#d9c08a"/><rect x="16" y="14" width="2" height="1" fill="#0f1823"/><rect x="3" y="15" width="1" height="1" fill="#0f1823"/><rect x="4" y="15" width="1" height="1" fill="#f3f7fa"/><rect x="5" y="15" width="7" height="1" fill="#dde7ef"/><rect x="12" y="15" width="1" height="1" fill="#0f1823"/><rect x="13" y="15" width="2" height="1" fill="#d9c08a"/><rect x="15" y="15" width="1" height="1" fill="#fff3d1"/><rect x="16" y="15" width="2" height="1" fill="#d9c08a"/><rect x="18" y="15" width="1" height="1" fill="#0f1823"/><rect x="3" y="16" width="1" height="1" fill="#0f1823"/><rect x="4" y="16" width="1" height="1" fill="#f3f7fa"/><rect x="5" y="16" width="8" height="1" fill="#dde7ef"/><rect x="13" y="16" width="2" height="1" fill="#0f1823"/><rect x="15" y="16" width="1" height="1" fill="#d9c08a"/><rect x="16" y="16" width="2" height="1" fill="#0f1823"/><rect x="3" y="17" width="1" height="1" fill="#0f1823"/><rect x="4" y="17" width="10" height="1" fill="#a3b8ca"/><rect x="14" y="17" width="1" height="1" fill="#0f1823"/><rect x="15" y="17" width="1" height="1" fill="#d9c08a"/><rect x="16" y="17" width="1" height="1" fill="#0f1823"/><rect x="17" y="17" width="1" height="1" fill="#050a12" fill-opacity="0.5"/><rect x="4" y="18" width="12" height="1" fill="#0f1823"/><rect x="16" y="18" width="1" height="1" fill="#050a12" fill-opacity="0.5"/><rect x="5" y="19" width="11" height="1" fill="#050a12" fill-opacity="0.5"/></svg>
