<svg xmlns="http://www.w3.org/2000/svg" width="160" height="160" viewBox="0 0 16 16" shape-rendering="crispEdges"><rect x="6" y="1" width="8" height="1" fill="#0f1823"/><rect x="6" y="2" width="1" height="1" fill="#0f1823"/><rect x="7" y="2" width="6" height="1" fill="#8fb8d6"/><rect x="13" y="2" width="1" height="1" fill="#0f1823"/><rect x="6" y="3" width="1" height="1" fill="#0f1823"/><rect x="7" y="3" width="6" height="1" fill="#8fb8d6"/><rect x="13" y="3" width="1" height="1" fill="#0f1823"/><rect x="14" y="3" width="1" height="1" fill="#050a12" fill-opacity="0.5"/><rect x="2" y="4" width="9" height="1" fill="#0f1823"/><rect x="11" y="4" width="2" height="1" fill="#8fb8d6"/><rect x="13" y="4" width="1" height="1" fill="#0f1823"/><rect x="14" y="4" width="1" height="1" fill="#050a12" fill-opacity="0.5"/><rect x="2" y="5" width="1" height="1" fill="#0f1823"/><rect x="3" y="5" width="7" height="1" fill="#f3f7fa"/><rect x="10" y="5" width="1" height="1" fill="#0f1823"/><rect x="11" y="5" width="2" height="1" fill="#8fb8d6"/><rect x="13" y="5" width="1" height="1" fill="#0f1823"/><rect x="14" y="5" width="1" height="1" fill="#050a12" fill-opacity="0.5"/><rect x="2" y="6" width="1" height="1" fill="#0f1823"/><rect x="3" y="6" width="1" height="1" fill="#f3f7fa"/><rect x="4" y="6" width="5" height="1" fill="#dde7ef"/><rect x="9" y="6" width="1" height="1" fill="#a3b8ca"/><rect x="10" y="6" width="1" height="1" fill="#0f1823"/><rect x="11" y="6" width="2" height="1" fill="#8fb8d6"/><rect x="13" y="6" width="1" height="1" fill="#0f1823"/><rect x="14" y="6" width="1" height="1" fill="#050a12" fill-opacity="0.5"/><rect x="2" y="7" width="1" height="1" fill="#0f1823"/><rect x="3" y="7" width="1" height="1" fill="#f3f7fa"/><rect x="4" y="7" width="1" height="1" fill="#dde7ef"/><rect x="5" y="7" width="3" height="1" fill="#5f8fb3"/><rect x="8" y="7" width="1" height="1" fill="#dde7ef"/><rect x="9" y="7" width="1" height="1" fill="#a3b8ca"/><rect x="10" y="7" width="1" height="1" fill="#0f1823"/><rect x="11" y="7" width="2" height="1" fill="#8fb8d6"/><rect x="13" y="7" width="1" height="1" fill="#0f1823"/><rect x="14" y="7" width="1" height="1" fill="#050a12" fill-opacity="0.5"/><rect x="2" y="8" width="1" height="1" fill="#0f1823"/><rect x="3" y="8" width="1" height="1" fill="#f3f7fa"/><rect x="4" y="8" width="5" height="1" fill="#dde7ef"/><rect x="9" y="8" width="1" height="1" fill="#a3b8ca"/><rect x="10" y="8" width="4" height="1" fill="#0f1823"/><rect x="14" y="8" width="1" height="1" fill="#050a12" fill-opacity="0.5"/><rect x="2" y="9" width="1" height="1" fill="#0f1823"/><rect x="3" y="9" width="1" height="1" fill="#f3f7fa"/><rect x="4" y="9" width="1" height="1" fill="#dde7ef"/><rect x="5" y="9" width="2" height="1" fill="#5f8fb3"/><rect x="7" y="9" width="2" height="1" fill="#dde7ef"/><rect x="9" y="9" width="1" height="1" fill="#a3b8ca"/><rect x="10" y="9" width="1" height="1" fill="#0f1823"/><rect x="11" y="9" width="3" height="1" fill="#050a12" fill-opacity="0.5"/><rect x="2" y="10" width="1" height="1" fill="#0f1823"/><rect x="3" y="10" width="1" height="1" fill="#f3f7fa"/><rect x="4" y="10" width="5" height="1" fill="#dde7ef"/><rect x="9" y="10" width="1" height="1" fill="#a3b8ca"/><rect x="10" y="10" width="1" height="1" fill="#0f1823"/><rect x="11" y="10" width="1" height="1" fill="#050a12" fill-opacity="0.5"/><rect x="2" y="11" width="1" height="1" fill="#0f1823"/><rect x="3" y="11" width="1" height="1" fill="#f3f7fa"/><rect x="4" y="11" width="5" height="1" fill="#dde7ef"/><rect x="9" y="11" width="1" height="1" fill="#a3b8ca"/><rect x="10" y="11" width="1" height="1" fill="#0f1823"/><rect x="11" y="11" width="1" height="1" fill="#050a12" fill-opacity="0.5"/><rect x="2" y="12" width="1" height="1" fill="#0f1823"/><rect x="3" y="12" width="7" height="1" fill="#a3b8ca"/><rect x="10" y="12" width="1" height="1" fill="#0f1823"/><rect x="11" y="12" width="1" height="1" fill="#050a12" fill-opacity="0.5"/><rect x="2" y="13" width="9" height="1" fill="#0f1823"/><rect x="11" y="13" width="1" height="1" fill="#050a12" fill-opacity="0.5"/><rect x="3" y="14" width="9" height="1" fill="#050a12" fill-opacity="0.5"/></svg>
